<svg width="512" height="512" viewBox="0 0 512 512" fill="none" xmlns="http://www.w3.org/2000/svg">
<g clip-path="url(#clip0_12_80)">
<path d="M512 0H0V512H512V0Z" fill="url(#paint0_linear_12_80)"/>
<path d="M339.304 116.583C334.517 111.718 327.102 110.538 321 113.382C320.109 113.798 316.629 115.436 311.407 118.09C305.447 121.12 297.184 125.491 287.922 130.886C269.676 141.513 246.442 156.741 229.573 174.071C206.776 197.493 187.606 234.56 174.465 264.204C167.769 279.309 162.406 293.032 158.715 302.981C157.782 305.498 156.954 307.776 156.237 309.779C137.305 312.551 121.384 316.222 109.413 320.764C102.481 323.394 95.9232 326.664 90.8153 330.916C85.7701 335.115 80.2284 341.972 80.2284 351.506C80.2285 359.522 84.3583 365.538 88.2836 369.375C92.1818 373.186 97.0743 376.096 101.934 378.395C111.734 383.029 124.895 386.781 139.877 389.777C170.105 395.821 211.154 399.445 256.005 399.445C300.856 399.445 341.905 395.821 372.132 389.777C387.115 386.781 400.275 383.029 410.076 378.395C414.935 376.096 419.828 373.186 423.726 369.375C427.59 365.598 431.652 359.71 431.778 351.88L431.781 351.506L431.778 351.061C431.609 341.759 426.165 335.049 421.196 330.913C416.087 326.659 409.528 323.389 402.596 320.76C390.121 316.029 373.357 312.243 353.368 309.434C352.752 308.437 352.072 307.33 351.343 306.119C347.744 300.145 342.932 291.754 338.083 282.101C328.075 262.178 319.114 239.197 318.41 221.294C317.787 205.462 323.248 184.345 329.704 165.853C332.833 156.89 336.015 149.039 338.414 143.436C339.61 140.64 340.606 138.418 341.293 136.914C341.636 136.163 341.901 135.592 342.076 135.22C342.164 135.034 342.228 134.897 342.269 134.812C342.289 134.77 342.303 134.74 342.311 134.724C342.313 134.719 342.315 134.715 342.316 134.713C345.235 128.639 344.031 121.386 339.304 116.583Z" fill="white"/>
</g>
<defs>
<linearGradient id="paint0_linear_12_80" x1="256" y1="0" x2="256" y2="512" gradientUnits="userSpaceOnUse">
<stop stop-color="#BF2518"/>
<stop offset="0.5" stop-color="#ED5345"/>
<stop offset="1" stop-color="#EB7A6F"/>
</linearGradient>
<clipPath id="clip0_12_80">
<rect width="512" height="512" fill="white"/>
</clipPath>
</defs>
</svg>
